<svg xmlns="http://www.w3.org/2000/svg" xmlns:xlink="http://www.w3.org/1999/xlink" width="500" zoomAndPan="magnify" viewBox="0 0 375 374.999991" height="500" preserveAspectRatio="xMidYMid meet" version="1.0"><defs><g/><clipPath id="7a90c6d9b1"><path d="M 106 153 L 143.574219 153 L 143.574219 212 L 106 212 Z M 106 153 " clip-rule="nonzero"/></clipPath><clipPath id="fc72304740"><path d="M 86.574219 160 L 124 160 L 124 218.890625 L 86.574219 218.890625 Z M 86.574219 160 " clip-rule="nonzero"/></clipPath></defs><g clip-path="url(#7a90c6d9b1)"><path fill="#040606" d="M 108.648438 158.25 L 113.367188 155.265625 C 113.449219 155.214844 113.527344 155.199219 113.59375 155.199219 C 113.695312 155.199219 113.78125 155.234375 113.8125 155.253906 C 113.890625 155.296875 113.980469 155.375 113.980469 155.5 L 113.980469 161.480469 C 113.980469 161.609375 113.890625 161.6875 113.8125 161.730469 C 113.757812 161.761719 113.5625 161.847656 113.367188 161.71875 L 108.648438 158.726562 C 108.53125 158.65625 108.503906 158.554688 108.503906 158.492188 C 108.503906 158.425781 108.53125 158.328125 108.648438 158.25 Z M 107.480469 160.585938 L 112.195312 163.574219 C 112.625 163.84375 113.109375 163.984375 113.597656 163.984375 C 114.035156 163.984375 114.476562 163.871094 114.867188 163.652344 C 115.679688 163.203125 116.167969 162.390625 116.167969 161.480469 L 116.167969 159.621094 C 130.15625 160.195312 141.355469 171.78125 141.355469 185.945312 C 141.355469 196.082031 135.710938 205.152344 126.636719 209.621094 C 126.09375 209.886719 125.871094 210.542969 126.136719 211.089844 C 126.328125 211.480469 126.71875 211.707031 127.117188 211.707031 C 127.28125 211.707031 127.445312 211.667969 127.601562 211.59375 C 137.4375 206.75 143.542969 196.921875 143.542969 185.945312 C 143.542969 170.570312 131.363281 158.003906 116.167969 157.421875 L 116.167969 155.5 C 116.167969 154.59375 115.679688 153.78125 114.867188 153.332031 C 114.027344 152.863281 113.003906 152.898438 112.195312 153.410156 L 107.480469 156.398438 C 106.75 156.863281 106.3125 157.640625 106.3125 158.492188 C 106.3125 159.339844 106.75 160.121094 107.480469 160.585938 " fill-opacity="1" fill-rule="nonzero"/></g><path fill="#040606" d="M 100.839844 195.828125 C 99.632812 195.828125 98.648438 194.84375 98.648438 193.632812 L 98.648438 173.867188 C 98.648438 172.65625 99.632812 171.667969 100.839844 171.667969 L 129.308594 171.667969 C 130.515625 171.667969 131.5 172.65625 131.5 173.867188 L 131.5 193.632812 C 131.5 194.84375 130.515625 195.828125 129.308594 195.828125 L 113.964844 195.828125 C 113.183594 195.828125 112.425781 196.113281 111.828125 196.625 L 106.3125 201.277344 L 106.3125 198.027344 C 106.3125 196.816406 105.332031 195.828125 104.125 195.828125 Z M 105.414062 203.304688 C 105.722656 203.449219 106.042969 203.515625 106.359375 203.515625 C 106.878906 203.515625 107.386719 203.335938 107.800781 202.980469 L 113.257812 198.292969 C 113.453125 198.121094 113.710938 198.027344 113.964844 198.027344 L 129.308594 198.027344 C 131.726562 198.027344 133.6875 196.058594 133.6875 193.632812 L 133.6875 173.867188 C 133.6875 171.445312 131.726562 169.472656 129.308594 169.472656 L 100.839844 169.472656 C 98.421875 169.472656 96.460938 171.445312 96.460938 173.867188 L 96.460938 193.632812 C 96.460938 196.058594 98.421875 198.027344 100.839844 198.027344 L 104.125 198.027344 L 104.125 201.277344 C 104.125 202.160156 104.621094 202.9375 105.414062 203.304688 " fill-opacity="1" fill-rule="nonzero"/><path fill="#040606" d="M 104.125 178.257812 L 126.023438 178.257812 C 126.628906 178.257812 127.117188 177.765625 127.117188 177.160156 C 127.117188 176.554688 126.628906 176.0625 126.023438 176.0625 L 104.125 176.0625 C 103.519531 176.0625 103.027344 176.554688 103.027344 177.160156 C 103.027344 177.765625 103.519531 178.257812 104.125 178.257812 " fill-opacity="1" fill-rule="nonzero"/><path fill="#040606" d="M 104.125 183.75 L 126.023438 183.75 C 126.628906 183.75 127.117188 183.257812 127.117188 182.652344 C 127.117188 182.046875 126.628906 181.554688 126.023438 181.554688 L 104.125 181.554688 C 103.519531 181.554688 103.027344 182.046875 103.027344 182.652344 C 103.027344 183.257812 103.519531 183.75 104.125 183.75 " fill-opacity="1" fill-rule="nonzero"/><path fill="#040606" d="M 116.167969 189.242188 C 116.773438 189.242188 117.265625 188.746094 117.265625 188.140625 C 117.265625 187.539062 116.773438 187.042969 116.167969 187.042969 L 104.125 187.042969 C 103.519531 187.042969 103.027344 187.539062 103.027344 188.140625 C 103.027344 188.746094 103.519531 189.242188 104.125 189.242188 L 116.167969 189.242188 " fill-opacity="1" fill-rule="nonzero"/><g clip-path="url(#fc72304740)"><path fill="#040606" d="M 116.167969 210.414062 C 116.167969 210.28125 116.257812 210.203125 116.335938 210.160156 C 116.367188 210.144531 116.453125 210.105469 116.554688 210.105469 C 116.621094 210.105469 116.699219 210.121094 116.78125 210.175781 L 121.5 213.160156 C 121.617188 213.238281 121.644531 213.332031 121.644531 213.398438 C 121.644531 213.46875 121.617188 213.5625 121.5 213.640625 L 116.78125 216.625 C 116.578125 216.753906 116.386719 216.667969 116.335938 216.640625 C 116.257812 216.597656 116.167969 216.519531 116.167969 216.386719 Z M 113.980469 214.472656 L 113.980469 216.386719 C 113.980469 217.300781 114.464844 218.113281 115.28125 218.5625 C 115.671875 218.78125 116.113281 218.890625 116.550781 218.890625 C 117.039062 218.890625 117.523438 218.753906 117.953125 218.484375 L 122.667969 215.492188 C 123.398438 215.03125 123.835938 214.25 123.835938 213.398438 C 123.835938 212.550781 123.398438 211.769531 122.667969 211.308594 L 117.953125 208.316406 C 117.144531 207.804688 116.117188 207.777344 115.28125 208.238281 C 114.464844 208.6875 113.980469 209.5 113.980469 210.414062 L 113.980469 212.277344 C 99.992188 211.699219 88.792969 200.109375 88.792969 185.945312 C 88.792969 175.808594 94.4375 166.742188 103.511719 162.269531 C 104.054688 162.003906 104.277344 161.34375 104.011719 160.800781 C 103.746094 160.257812 103.09375 160.03125 102.546875 160.296875 C 92.710938 165.140625 86.605469 174.96875 86.605469 185.945312 C 86.605469 201.324219 98.785156 213.890625 113.980469 214.472656 " fill-opacity="1" fill-rule="nonzero"/></g><g fill="#ffffff" fill-opacity="1"><g transform="translate(150.590078, 180.304119)"><g><path d="M 8.578125 -14.0625 L 8.578125 -12.59375 L 5.140625 -12.59375 L 5.140625 0 L 3.578125 0 L 3.578125 -12.59375 L 0.1875 -12.59375 L 0.1875 -14.0625 Z M 8.578125 -14.0625 "/></g></g></g><g fill="#ffffff" fill-opacity="1"><g transform="translate(159.353024, 180.304119)"><g><path d="M 3.5625 -14.0625 C 6.914062 -14.0625 8.59375 -12.765625 8.59375 -10.171875 C 8.59375 -9.097656 8.273438 -8.207031 7.640625 -7.5 C 7.015625 -6.800781 6.15625 -6.398438 5.0625 -6.296875 L 9.546875 0 L 7.625 0 L 3.375 -6.171875 L 2.984375 -6.171875 L 2.984375 0 L 1.421875 0 L 1.421875 -14.0625 Z M 2.984375 -7.546875 L 3.671875 -7.546875 C 4.773438 -7.546875 5.609375 -7.75 6.171875 -8.15625 C 6.742188 -8.570312 7.03125 -9.207031 7.03125 -10.0625 C 7.03125 -11 6.753906 -11.65625 6.203125 -12.03125 C 5.648438 -12.40625 4.847656 -12.59375 3.796875 -12.59375 L 2.984375 -12.59375 Z M 2.984375 -7.546875 "/></g></g></g><g fill="#ffffff" fill-opacity="1"><g transform="translate(169.458386, 180.304119)"><g><path d="M 2.9375 -14.0625 L 2.9375 -5.390625 C 2.9375 -4.222656 3.066406 -3.390625 3.328125 -2.890625 C 3.597656 -2.390625 4.019531 -1.984375 4.59375 -1.671875 C 5.175781 -1.367188 5.773438 -1.21875 6.390625 -1.21875 C 6.972656 -1.21875 7.519531 -1.347656 8.03125 -1.609375 C 8.550781 -1.867188 8.929688 -2.15625 9.171875 -2.46875 C 9.421875 -2.78125 9.59375 -3.140625 9.6875 -3.546875 C 9.789062 -3.960938 9.84375 -4.585938 9.84375 -5.421875 L 9.84375 -14.0625 L 11.40625 -14.0625 L 11.40625 -5.09375 C 11.40625 -4.164062 11.304688 -3.421875 11.109375 -2.859375 C 10.921875 -2.296875 10.582031 -1.769531 10.09375 -1.28125 C 9.613281 -0.789062 9.050781 -0.410156 8.40625 -0.140625 C 7.769531 0.117188 7.097656 0.25 6.390625 0.25 C 5.503906 0.25 4.671875 0.0390625 3.890625 -0.375 C 3.117188 -0.789062 2.503906 -1.347656 2.046875 -2.046875 C 1.597656 -2.742188 1.375 -3.769531 1.375 -5.125 L 1.375 -14.0625 Z M 2.9375 -14.0625 "/></g></g></g><g fill="#ffffff" fill-opacity="1"><g transform="translate(182.229911, 180.304119)"><g><path d="M 8.703125 -14.0625 L 8.703125 -12.59375 L 2.984375 -12.59375 L 2.984375 -8.421875 L 8.53125 -8.421875 L 8.53125 -6.96875 L 2.984375 -6.96875 L 2.984375 -1.453125 L 8.703125 -1.453125 L 8.703125 0 L 1.421875 0 L 1.421875 -14.0625 Z M 8.703125 -14.0625 "/></g></g></g><g fill="#ffffff" fill-opacity="1"><g transform="translate(192.18611, 180.304119)"><g/></g></g><g fill="#ffffff" fill-opacity="1"><g transform="translate(197.928641, 180.304119)"><g><path d="M 7.8125 -14.0625 L 7.8125 -12.59375 L 2.984375 -12.59375 L 2.984375 -8.421875 L 7.65625 -8.421875 L 7.65625 -6.96875 L 2.984375 -6.96875 L 2.984375 0 L 1.421875 0 L 1.421875 -14.0625 Z M 7.8125 -14.0625 "/></g></g></g><g fill="#ffffff" fill-opacity="1"><g transform="translate(206.840749, 180.304119)"><g><path d="M 8.703125 -14.0625 L 8.703125 -12.59375 L 2.984375 -12.59375 L 2.984375 -8.421875 L 8.53125 -8.421875 L 8.53125 -6.96875 L 2.984375 -6.96875 L 2.984375 -1.453125 L 8.703125 -1.453125 L 8.703125 0 L 1.421875 0 L 1.421875 -14.0625 Z M 8.703125 -14.0625 "/></g></g></g><g fill="#ffffff" fill-opacity="1"><g transform="translate(216.796949, 180.304119)"><g><path d="M 8.703125 -14.0625 L 8.703125 -12.59375 L 2.984375 -12.59375 L 2.984375 -8.421875 L 8.53125 -8.421875 L 8.53125 -6.96875 L 2.984375 -6.96875 L 2.984375 -1.453125 L 8.703125 -1.453125 L 8.703125 0 L 1.421875 0 L 1.421875 -14.0625 Z M 8.703125 -14.0625 "/></g></g></g><g fill="#ffffff" fill-opacity="1"><g transform="translate(226.753148, 180.304119)"><g><path d="M 4.375 -14.0625 C 5.664062 -14.0625 6.773438 -13.863281 7.703125 -13.46875 C 8.640625 -13.070312 9.421875 -12.539062 10.046875 -11.875 C 10.671875 -11.21875 11.128906 -10.472656 11.421875 -9.640625 C 11.722656 -8.804688 11.875 -7.914062 11.875 -6.96875 C 11.875 -5.757812 11.597656 -4.632812 11.046875 -3.59375 C 10.492188 -2.5625 9.675781 -1.703125 8.59375 -1.015625 C 7.507812 -0.335938 6.097656 0 4.359375 0 L 1.421875 0 L 1.421875 -14.0625 Z M 4.46875 -1.453125 C 5.332031 -1.453125 6.109375 -1.578125 6.796875 -1.828125 C 7.492188 -2.085938 8.109375 -2.472656 8.640625 -2.984375 C 9.179688 -3.492188 9.59375 -4.101562 9.875 -4.8125 C 10.164062 -5.519531 10.3125 -6.257812 10.3125 -7.03125 C 10.3125 -8.050781 10.082031 -8.972656 9.625 -9.796875 C 9.175781 -10.617188 8.53125 -11.289062 7.6875 -11.8125 C 6.851562 -12.332031 5.726562 -12.59375 4.3125 -12.59375 L 2.984375 -12.59375 L 2.984375 -1.453125 Z M 4.46875 -1.453125 "/></g></g></g><g fill="#ffffff" fill-opacity="1"><g transform="translate(239.394165, 180.304119)"><g><path d="M 3.828125 -14.0625 C 5.304688 -14.0625 6.441406 -13.734375 7.234375 -13.078125 C 8.023438 -12.421875 8.421875 -11.476562 8.421875 -10.25 C 8.421875 -9.675781 8.3125 -9.15625 8.09375 -8.6875 C 7.875 -8.226562 7.523438 -7.835938 7.046875 -7.515625 C 7.828125 -7.316406 8.46875 -6.882812 8.96875 -6.21875 C 9.46875 -5.550781 9.71875 -4.773438 9.71875 -3.890625 C 9.71875 -2.671875 9.273438 -1.71875 8.390625 -1.03125 C 7.515625 -0.34375 6.304688 0 4.765625 0 L 1.421875 0 L 1.421875 -14.0625 Z M 2.984375 -7.859375 L 3.703125 -7.859375 C 4.609375 -7.859375 5.269531 -7.953125 5.6875 -8.140625 C 6.101562 -8.328125 6.398438 -8.59375 6.578125 -8.9375 C 6.765625 -9.28125 6.859375 -9.71875 6.859375 -10.25 C 6.859375 -11.082031 6.644531 -11.679688 6.21875 -12.046875 C 5.789062 -12.410156 4.945312 -12.59375 3.6875 -12.59375 L 2.984375 -12.59375 Z M 4.640625 -1.453125 C 5.796875 -1.453125 6.664062 -1.664062 7.25 -2.09375 C 7.84375 -2.519531 8.140625 -3.164062 8.140625 -4.03125 C 8.140625 -4.84375 7.832031 -5.460938 7.21875 -5.890625 C 6.613281 -6.316406 5.6875 -6.53125 4.4375 -6.53125 L 2.984375 -6.53125 L 2.984375 -1.453125 Z M 4.640625 -1.453125 "/></g></g></g><g fill="#ffffff" fill-opacity="1"><g transform="translate(249.984287, 180.304119)"><g><path d="M 6.59375 -14.71875 L 12.921875 0 L 11.1875 0 L 9.53125 -3.984375 L 3.515625 -3.984375 L 1.828125 0 L 0.109375 0 Z M 4.15625 -5.4375 L 8.90625 -5.4375 L 6.5625 -11.078125 Z M 2.53125 -14.0625 Z M 2.53125 -14.0625 "/></g></g></g><g fill="#ffffff" fill-opacity="1"><g transform="translate(263.016841, 180.304119)"><g><path d="M 12.140625 -10.984375 C 11.535156 -11.578125 10.863281 -12.035156 10.125 -12.359375 C 9.382812 -12.679688 8.625 -12.84375 7.84375 -12.84375 C 6.851562 -12.84375 5.914062 -12.570312 5.03125 -12.03125 C 4.144531 -11.5 3.445312 -10.785156 2.9375 -9.890625 C 2.4375 -9.003906 2.1875 -8.050781 2.1875 -7.03125 C 2.1875 -6.03125 2.441406 -5.078125 2.953125 -4.171875 C 3.472656 -3.265625 4.171875 -2.546875 5.046875 -2.015625 C 5.929688 -1.484375 6.878906 -1.21875 7.890625 -1.21875 C 8.640625 -1.21875 9.382812 -1.378906 10.125 -1.703125 C 10.863281 -2.023438 11.535156 -2.484375 12.140625 -3.078125 L 12.140625 -1.140625 C 11.535156 -0.703125 10.867188 -0.359375 10.140625 -0.109375 C 9.421875 0.128906 8.6875 0.25 7.9375 0.25 C 6.695312 0.25 5.507812 -0.0625 4.375 -0.6875 C 3.238281 -1.3125 2.328125 -2.179688 1.640625 -3.296875 C 0.953125 -4.421875 0.609375 -5.644531 0.609375 -6.96875 C 0.609375 -8.289062 0.9375 -9.515625 1.59375 -10.640625 C 2.257812 -11.765625 3.160156 -12.65625 4.296875 -13.3125 C 5.429688 -13.96875 6.644531 -14.296875 7.9375 -14.296875 C 8.738281 -14.296875 9.515625 -14.164062 10.265625 -13.90625 C 11.023438 -13.644531 11.648438 -13.316406 12.140625 -12.921875 Z M 12.140625 -10.984375 "/></g></g></g><g fill="#ffffff" fill-opacity="1"><g transform="translate(276.384992, 180.304119)"><g><path d="M 2.984375 -14.0625 L 2.984375 -8.03125 L 8.96875 -14.0625 L 11.078125 -14.0625 L 4.46875 -7.515625 L 11.296875 0 L 9.140625 0 L 3.375 -6.453125 L 2.984375 -6.0625 L 2.984375 0 L 1.421875 0 L 1.421875 -14.0625 Z M 2.984375 -14.0625 "/></g></g></g><g fill="#ffffff" fill-opacity="1"><g transform="translate(152.120781, 208.178653)"><g><path d="M 5.671875 -2.203125 C 5.671875 -1.484375 5.414062 -0.914062 4.90625 -0.5 C 4.394531 -0.09375 3.675781 0.109375 2.75 0.109375 C 1.90625 0.109375 1.160156 -0.0507812 0.515625 -0.375 L 0.515625 -1.9375 C 1.046875 -1.695312 1.492188 -1.523438 1.859375 -1.421875 C 2.234375 -1.328125 2.578125 -1.28125 2.890625 -1.28125 C 3.253906 -1.28125 3.535156 -1.347656 3.734375 -1.484375 C 3.929688 -1.628906 4.03125 -1.84375 4.03125 -2.125 C 4.03125 -2.28125 3.984375 -2.414062 3.890625 -2.53125 C 3.804688 -2.65625 3.679688 -2.769531 3.515625 -2.875 C 3.347656 -2.988281 3.003906 -3.171875 2.484375 -3.421875 C 2.003906 -3.648438 1.640625 -3.867188 1.390625 -4.078125 C 1.148438 -4.285156 0.957031 -4.53125 0.8125 -4.8125 C 0.675781 -5.09375 0.609375 -5.414062 0.609375 -5.78125 C 0.609375 -6.488281 0.84375 -7.039062 1.3125 -7.4375 C 1.789062 -7.84375 2.445312 -8.046875 3.28125 -8.046875 C 3.695312 -8.046875 4.09375 -7.992188 4.46875 -7.890625 C 4.84375 -7.796875 5.234375 -7.660156 5.640625 -7.484375 L 5.09375 -6.171875 C 4.675781 -6.347656 4.328125 -6.46875 4.046875 -6.53125 C 3.773438 -6.601562 3.503906 -6.640625 3.234375 -6.640625 C 2.910156 -6.640625 2.664062 -6.566406 2.5 -6.421875 C 2.332031 -6.273438 2.25 -6.082031 2.25 -5.84375 C 2.25 -5.695312 2.28125 -5.566406 2.34375 -5.453125 C 2.414062 -5.335938 2.523438 -5.226562 2.671875 -5.125 C 2.828125 -5.03125 3.1875 -4.847656 3.75 -4.578125 C 4.488281 -4.222656 4.992188 -3.867188 5.265625 -3.515625 C 5.535156 -3.160156 5.671875 -2.722656 5.671875 -2.203125 Z M 5.671875 -2.203125 "/></g></g></g><g fill="#ffffff" fill-opacity="1"><g transform="translate(158.237692, 208.178653)"><g><path d="M 5.5625 0 L 1 0 L 1 -7.9375 L 5.5625 -7.9375 L 5.5625 -6.546875 L 2.6875 -6.546875 L 2.6875 -4.8125 L 5.359375 -4.8125 L 5.359375 -3.4375 L 2.6875 -3.4375 L 2.6875 -1.390625 L 5.5625 -1.390625 Z M 5.5625 0 "/></g></g></g><g fill="#ffffff" fill-opacity="1"><g transform="translate(164.457636, 208.178653)"><g><path d="M 8.03125 0 L 5.890625 0 L 2.453125 -6 L 2.390625 -6 C 2.460938 -4.9375 2.5 -4.179688 2.5 -3.734375 L 2.5 0 L 1 0 L 1 -7.9375 L 3.125 -7.9375 L 6.5625 -1.984375 L 6.609375 -1.984375 C 6.546875 -3.015625 6.515625 -3.742188 6.515625 -4.171875 L 6.515625 -7.9375 L 8.03125 -7.9375 Z M 8.03125 0 "/></g></g></g><g fill="#ffffff" fill-opacity="1"><g transform="translate(173.486586, 208.178653)"><g><path d="M 7.578125 -4.046875 C 7.578125 -2.734375 7.203125 -1.726562 6.453125 -1.03125 C 5.710938 -0.34375 4.644531 0 3.25 0 L 1 0 L 1 -7.9375 L 3.484375 -7.9375 C 4.785156 -7.9375 5.789062 -7.59375 6.5 -6.90625 C 7.21875 -6.21875 7.578125 -5.265625 7.578125 -4.046875 Z M 5.828125 -4 C 5.828125 -5.695312 5.078125 -6.546875 3.578125 -6.546875 L 2.6875 -6.546875 L 2.6875 -1.390625 L 3.40625 -1.390625 C 5.019531 -1.390625 5.828125 -2.257812 5.828125 -4 Z M 5.828125 -4 "/></g></g></g><g fill="#ffffff" fill-opacity="1"><g transform="translate(181.707541, 208.178653)"><g/></g></g><g fill="#ffffff" fill-opacity="1"><g transform="translate(184.592467, 208.178653)"><g><path d="M 5.671875 -2.203125 C 5.671875 -1.484375 5.414062 -0.914062 4.90625 -0.5 C 4.394531 -0.09375 3.675781 0.109375 2.75 0.109375 C 1.90625 0.109375 1.160156 -0.0507812 0.515625 -0.375 L 0.515625 -1.9375 C 1.046875 -1.695312 1.492188 -1.523438 1.859375 -1.421875 C 2.234375 -1.328125 2.578125 -1.28125 2.890625 -1.28125 C 3.253906 -1.28125 3.535156 -1.347656 3.734375 -1.484375 C 3.929688 -1.628906 4.03125 -1.84375 4.03125 -2.125 C 4.03125 -2.28125 3.984375 -2.414062 3.890625 -2.53125 C 3.804688 -2.65625 3.679688 -2.769531 3.515625 -2.875 C 3.347656 -2.988281 3.003906 -3.171875 2.484375 -3.421875 C 2.003906 -3.648438 1.640625 -3.867188 1.390625 -4.078125 C 1.148438 -4.285156 0.957031 -4.53125 0.8125 -4.8125 C 0.675781 -5.09375 0.609375 -5.414062 0.609375 -5.78125 C 0.609375 -6.488281 0.84375 -7.039062 1.3125 -7.4375 C 1.789062 -7.84375 2.445312 -8.046875 3.28125 -8.046875 C 3.695312 -8.046875 4.09375 -7.992188 4.46875 -7.890625 C 4.84375 -7.796875 5.234375 -7.660156 5.640625 -7.484375 L 5.09375 -6.171875 C 4.675781 -6.347656 4.328125 -6.46875 4.046875 -6.53125 C 3.773438 -6.601562 3.503906 -6.640625 3.234375 -6.640625 C 2.910156 -6.640625 2.664062 -6.566406 2.5 -6.421875 C 2.332031 -6.273438 2.25 -6.082031 2.25 -5.84375 C 2.25 -5.695312 2.28125 -5.566406 2.34375 -5.453125 C 2.414062 -5.335938 2.523438 -5.226562 2.671875 -5.125 C 2.828125 -5.03125 3.1875 -4.847656 3.75 -4.578125 C 4.488281 -4.222656 4.992188 -3.867188 5.265625 -3.515625 C 5.535156 -3.160156 5.671875 -2.722656 5.671875 -2.203125 Z M 5.671875 -2.203125 "/></g></g></g><g fill="#ffffff" fill-opacity="1"><g transform="translate(190.709378, 208.178653)"><g><path d="M 5.5625 0 L 1 0 L 1 -7.9375 L 5.5625 -7.9375 L 5.5625 -6.546875 L 2.6875 -6.546875 L 2.6875 -4.8125 L 5.359375 -4.8125 L 5.359375 -3.4375 L 2.6875 -3.4375 L 2.6875 -1.390625 L 5.5625 -1.390625 Z M 5.5625 0 "/></g></g></g><g fill="#ffffff" fill-opacity="1"><g transform="translate(196.929322, 208.178653)"><g><path d="M 4.359375 -6.640625 C 3.734375 -6.640625 3.242188 -6.398438 2.890625 -5.921875 C 2.546875 -5.453125 2.375 -4.789062 2.375 -3.9375 C 2.375 -2.175781 3.035156 -1.296875 4.359375 -1.296875 C 4.921875 -1.296875 5.597656 -1.429688 6.390625 -1.703125 L 6.390625 -0.296875 C 5.734375 -0.0234375 5.003906 0.109375 4.203125 0.109375 C 3.054688 0.109375 2.175781 -0.238281 1.5625 -0.9375 C 0.945312 -1.632812 0.640625 -2.640625 0.640625 -3.953125 C 0.640625 -4.773438 0.789062 -5.492188 1.09375 -6.109375 C 1.394531 -6.734375 1.828125 -7.210938 2.390625 -7.546875 C 2.953125 -7.878906 3.609375 -8.046875 4.359375 -8.046875 C 5.128906 -8.046875 5.90625 -7.859375 6.6875 -7.484375 L 6.140625 -6.125 C 5.847656 -6.257812 5.550781 -6.378906 5.25 -6.484375 C 4.945312 -6.585938 4.648438 -6.640625 4.359375 -6.640625 Z M 4.359375 -6.640625 "/></g></g></g><g fill="#ffffff" fill-opacity="1"><g transform="translate(204.006067, 208.178653)"><g><path d="M 2.6875 -4.40625 L 3.21875 -4.40625 C 3.75 -4.40625 4.140625 -4.492188 4.390625 -4.671875 C 4.648438 -4.847656 4.78125 -5.128906 4.78125 -5.515625 C 4.78125 -5.890625 4.648438 -6.15625 4.390625 -6.3125 C 4.128906 -6.46875 3.726562 -6.546875 3.1875 -6.546875 L 2.6875 -6.546875 Z M 2.6875 -3.046875 L 2.6875 0 L 1 0 L 1 -7.9375 L 3.3125 -7.9375 C 4.382812 -7.9375 5.179688 -7.738281 5.703125 -7.34375 C 6.222656 -6.945312 6.484375 -6.351562 6.484375 -5.5625 C 6.484375 -5.09375 6.351562 -4.675781 6.09375 -4.3125 C 5.832031 -3.945312 5.46875 -3.660156 5 -3.453125 C 6.195312 -1.671875 6.972656 -0.519531 7.328125 0 L 5.46875 0 L 3.578125 -3.046875 Z M 2.6875 -3.046875 "/></g></g></g><g fill="#ffffff" fill-opacity="1"><g transform="translate(211.337683, 208.178653)"><g><path d="M 5.5625 0 L 1 0 L 1 -7.9375 L 5.5625 -7.9375 L 5.5625 -6.546875 L 2.6875 -6.546875 L 2.6875 -4.8125 L 5.359375 -4.8125 L 5.359375 -3.4375 L 2.6875 -3.4375 L 2.6875 -1.390625 L 5.5625 -1.390625 Z M 5.5625 0 "/></g></g></g><g fill="#ffffff" fill-opacity="1"><g transform="translate(217.557627, 208.178653)"><g><path d="M 4.0625 0 L 2.375 0 L 2.375 -6.53125 L 0.21875 -6.53125 L 0.21875 -7.9375 L 6.21875 -7.9375 L 6.21875 -6.53125 L 4.0625 -6.53125 Z M 4.0625 0 "/></g></g></g><g fill="#ffffff" fill-opacity="1"><g transform="translate(223.98906, 208.178653)"><g/></g></g><g fill="#ffffff" fill-opacity="1"><g transform="translate(226.873986, 208.178653)"><g><path d="M 5.859375 0 L 5.28125 -1.890625 L 2.390625 -1.890625 L 1.8125 0 L 0 0 L 2.796875 -7.96875 L 4.859375 -7.96875 L 7.671875 0 Z M 4.875 -3.296875 C 4.34375 -5.003906 4.039062 -5.96875 3.96875 -6.1875 C 3.90625 -6.414062 3.859375 -6.597656 3.828125 -6.734375 C 3.710938 -6.265625 3.375 -5.117188 2.8125 -3.296875 Z M 4.875 -3.296875 "/></g></g></g><g fill="#ffffff" fill-opacity="1"><g transform="translate(234.536393, 208.178653)"><g><path d="M 7.578125 -4.046875 C 7.578125 -2.734375 7.203125 -1.726562 6.453125 -1.03125 C 5.710938 -0.34375 4.644531 0 3.25 0 L 1 0 L 1 -7.9375 L 3.484375 -7.9375 C 4.785156 -7.9375 5.789062 -7.59375 6.5 -6.90625 C 7.21875 -6.21875 7.578125 -5.265625 7.578125 -4.046875 Z M 5.828125 -4 C 5.828125 -5.695312 5.078125 -6.546875 3.578125 -6.546875 L 2.6875 -6.546875 L 2.6875 -1.390625 L 3.40625 -1.390625 C 5.019531 -1.390625 5.828125 -2.257812 5.828125 -4 Z M 5.828125 -4 "/></g></g></g><g fill="#ffffff" fill-opacity="1"><g transform="translate(242.757348, 208.178653)"><g><path d="M 5.515625 -7.9375 L 7.21875 -7.9375 L 4.53125 0 L 2.6875 0 L 0 -7.9375 L 1.703125 -7.9375 L 3.1875 -3.21875 C 3.269531 -2.9375 3.351562 -2.609375 3.4375 -2.234375 C 3.53125 -1.867188 3.585938 -1.613281 3.609375 -1.46875 C 3.648438 -1.800781 3.785156 -2.382812 4.015625 -3.21875 Z M 5.515625 -7.9375 "/></g></g></g><g fill="#ffffff" fill-opacity="1"><g transform="translate(249.975085, 208.178653)"><g><path d="M 1 0 L 1 -7.9375 L 2.6875 -7.9375 L 2.6875 0 Z M 1 0 "/></g></g></g><g fill="#ffffff" fill-opacity="1"><g transform="translate(253.651739, 208.178653)"><g><path d="M 4.359375 -6.640625 C 3.734375 -6.640625 3.242188 -6.398438 2.890625 -5.921875 C 2.546875 -5.453125 2.375 -4.789062 2.375 -3.9375 C 2.375 -2.175781 3.035156 -1.296875 4.359375 -1.296875 C 4.921875 -1.296875 5.597656 -1.429688 6.390625 -1.703125 L 6.390625 -0.296875 C 5.734375 -0.0234375 5.003906 0.109375 4.203125 0.109375 C 3.054688 0.109375 2.175781 -0.238281 1.5625 -0.9375 C 0.945312 -1.632812 0.640625 -2.640625 0.640625 -3.953125 C 0.640625 -4.773438 0.789062 -5.492188 1.09375 -6.109375 C 1.394531 -6.734375 1.828125 -7.210938 2.390625 -7.546875 C 2.953125 -7.878906 3.609375 -8.046875 4.359375 -8.046875 C 5.128906 -8.046875 5.90625 -7.859375 6.6875 -7.484375 L 6.140625 -6.125 C 5.847656 -6.257812 5.550781 -6.378906 5.25 -6.484375 C 4.945312 -6.585938 4.648438 -6.640625 4.359375 -6.640625 Z M 4.359375 -6.640625 "/></g></g></g><g fill="#ffffff" fill-opacity="1"><g transform="translate(260.728485, 208.178653)"><g><path d="M 5.5625 0 L 1 0 L 1 -7.9375 L 5.5625 -7.9375 L 5.5625 -6.546875 L 2.6875 -6.546875 L 2.6875 -4.8125 L 5.359375 -4.8125 L 5.359375 -3.4375 L 2.6875 -3.4375 L 2.6875 -1.390625 L 5.5625 -1.390625 Z M 5.5625 0 "/></g></g></g></svg>